# xmcd
#
# Track frame offsets: 
#        150
#        16081
#        36554
#        53923
#        69989
#        81235
#        99619
#        106843
#        126609
#        142890
#        160592
#
# Disc length: 2348 seconds
#
# Revision: 1
# Processed by: cddbd v1.5.2PL0 Copyright (c) Steve Scherf et al.
# Submitted via: ExactAudioCopy v0.99pb5
#
DISCID=8e092a0b
DTITLE=Garish - Wenn Dir das meine Liebe nicht beweist
DYEAR=2010
DGENRE=Blues
TTITLE0=Dann fass ich mir ein Herz
TTITLE1=Den Idioten zum Beweis
TTITLE2=Eisenherz
TTITLE3=Unglück trägt den selben Namen
TTITLE4=Zampano
TTITLE5=Die Perspektive
TTITLE6=Wenn Dir das meine Liebe nicht beweist
TTITLE7=Komme nie zu Spät
TTITLE8=Spuk
TTITLE9=Die Wahrheit ist davon krieg ich den Mund nicht voll
TTITLE10=Wir Warten
EXTD=
EXTT0=
EXTT1=
EXTT2=
EXTT3=
EXTT4=
EXTT5=
EXTT6=
EXTT7=
EXTT8=
EXTT9=
EXTT10=
PLAYORDER=
